<?xml version="1.0" standalone="no"?>
<!DOCTYPE svg PUBLIC "-//W3C//DTD SVG 20010904//EN"
 "http://www.w3.org/TR/2001/REC-SVG-20010904/DTD/svg10.dtd">
<svg version="1.0" xmlns="http://www.w3.org/2000/svg"
 width="300.000000pt" height="424.000000pt" viewBox="0 0 300.000000 424.000000"
 preserveAspectRatio="xMidYMid meet">
<metadata>
Created by potrace 1.10, written by Peter Selinger 2001-2011
</metadata>
<g transform="translate(0.000000,424.000000) scale(0.100000,-0.100000)"
fill="#000000" stroke="none">
<path d="M2259 2763 c-68 -73 -126 -172 -179 -309 -47 -121 -64 -193 -49 -210
18 -22 4 -28 -24 -10 -28 19 -63 10 -96 -23 -11 -11 -41 -29 -68 -41 -26 -11
-91 -45 -144 -75 -52 -30 -107 -55 -122 -55 -30 0 -29 -7 -27 146 1 72 -2 95
-15 108 -21 20 -23 20 -62 -3 -36 -23 -120 -120 -174 -204 -21 -32 -39 -54
-42 -50 -2 4 -5 37 -6 73 -1 35 -4 66 -6 68 -2 3 -21 -12 -41 -32 -28 -28 -34
-40 -26 -48 14 -14 16 -28 3 -28 -5 0 -61 -25 -125 -55 -64 -30 -146 -65 -182
-77 -65 -21 -67 -21 -81 -3 -7 11 -11 25 -8 32 2 7 7 42 11 78 9 83 -5 91 -85
48 -31 -17 -78 -34 -106 -38 -69 -10 -106 -27 -156 -72 -84 -76 -122 -152 -83
-167 53 -20 142 27 288 151 46 40 52 42 63 26 12 -15 13 -14 13 10 l0 26 -37
-15 c-21 -8 -46 -19 -55 -24 -11 -6 -18 -6 -20 1 -2 6 -38 -13 -81 -42 -78
-54 -110 -60 -66 -13 24 26 151 94 177 94 7 0 34 11 61 25 27 13 51 22 54 19
2 -3 2 -34 -1 -70 -8 -105 14 -117 163 -88 l30 5 -29 -25 c-34 -28 -100 -49
-141 -44 -33 3 -77 59 -74 93 2 36 -1 38 -21 12 -28 -36 -26 -92 5 -122 51
-52 141 -29 339 89 94 56 134 88 129 103 -3 7 7 19 20 28 18 11 23 22 20 38
-4 20 -3 20 11 -3 9 -14 21 -37 28 -52 11 -25 13 -25 36 -10 l25 16 -17 -30
c-51 -93 -93 -103 -84 -19 5 38 3 45 -9 41 -8 -3 -16 -6 -19 -6 -2 0 -1 -7 3
-15 3 -9 -2 -24 -12 -35 -23 -26 -12 -100 15 -100 32 0 103 69 173 169 98 139
116 161 133 154 8 -3 14 0 14 6 0 15 -23 14 -38 -1 -6 -6 -15 -9 -19 -5 -3 4
6 21 22 37 43 45 55 27 55 -85 0 -78 3 -96 21 -119 11 -14 29 -26 40 -26 28 0
23 -19 -6 -26 -47 -12 -70 2 -82 48 -6 24 -9 64 -6 89 3 29 1 49 -6 53 -7 5
-11 -3 -11 -21 0 -16 -7 -38 -15 -49 -22 -30 -19 -116 6 -148 25 -32 55 -33
112 -5 38 20 185 115 249 162 25 19 48 17 48 -4 0 -6 -4 -8 -9 -4 -9 5 -18 -2
-48 -39 -20 -24 -26 -65 -13 -96 18 -44 54 -40 126 13 33 24 68 54 78 65 26
29 40 28 32 -3 -15 -58 68 -113 140 -93 113 31 315 188 391 305 23 35 8 40
-29 10 -170 -137 -268 -197 -322 -197 -37 0 -49 7 -65 38 -26 50 -18 93 37
186 131 220 205 400 200 482 -3 47 -4 49 -34 52 -27 3 -39 -6 -95 -65z m99 -8
c2 -22 0 -26 -7 -16 -8 12 -11 10 -16 -11 -4 -15 -13 -29 -20 -31 -7 -3 -15
-17 -19 -32 -4 -15 -27 -72 -52 -128 -25 -56 -53 -118 -61 -137 l-15 -35 23
20 c18 16 15 6 -16 -50 -21 -38 -45 -83 -54 -99 -16 -33 -16 -97 -1 -127 6
-10 7 -19 3 -19 -4 0 10 -12 31 -26 31 -22 46 -25 83 -21 28 3 43 1 40 -6 -5
-17 -68 -45 -117 -51 -40 -6 -48 -3 -74 21 -16 15 -25 28 -19 30 6 2 23 -7 37
-21 14 -15 31 -26 38 -26 7 1 2 7 -12 15 -14 7 -36 31 -49 53 -23 38 -26 39
-47 26 -27 -18 -38 -5 -24 30 11 29 5 52 -16 60 -18 7 -18 -8 0 -27 13 -12 8
-20 -33 -61 -58 -57 -76 -60 -68 -10 8 49 67 128 98 131 53 4 67 7 63 14 -6
11 41 188 71 265 36 89 95 204 106 204 12 0 11 -7 -5 -38 -24 -46 -67 -185
-72 -227 -2 -29 11 -3 49 95 29 75 66 158 82 185 29 49 31 54 34 76 3 25 36 3
39 -26z m-463 -732 c16 -9 16 -11 0 -26 -38 -39 -74 4 -52 62 l11 30 12 -28
c7 -16 20 -33 29 -38z m-1449 -132 c24 -19 25 -20 5 -30 -32 -18 -51 -13 -51
12 0 41 12 45 46 18z"/>
</g>
</svg>
